<?xml version="1.0" encoding="utf-8"?>
<!-- Generator: Adobe Illustrator 26.0.3, SVG Export Plug-In . SVG Version: 6.00 Build 0)  -->
<svg version="1.1" id="Layer_1" xmlns="http://www.w3.org/2000/svg" xmlns:xlink="http://www.w3.org/1999/xlink" x="0px" y="0px"
	 viewBox="0 0 1080 1080" style="enable-background:new 0 0 1080 1080;" xml:space="preserve">
<style type="text/css">
	.st0{fill:#9C1C20;}
	.st1{fill:#9B1E21;}
	.st2{fill:#FFFFFF;}
</style>
<path class="st1" d="M518.11,427.95c13.26,14.57,26.33,28.93,38.83,42.67c-3.98,6.24-8.55,11.56-11.09,17.72
	c-9.17,22.3,3.17,47.62,26.25,55.02c23.14,7.42,47.44-6.21,53.57-30c3.66-14.18,0.22-26.49-9.57-37.16
	c-29.94-32.63-59.91-65.24-89.86-97.86c-2.68-2.91-5.34-5.83-9.28-10.13c-0.77,1.51-1.14,2.98-2.05,3.91
	c-17.52,17.74-34.93,35.6-52.72,53.07c-21.45,21.08-55.1,21.38-77.19,1.09c-1.18-1.08-2.57-1.93-5.07-3.78
	c5.66-5.14,10.66-9.23,15.13-13.83c26.9-27.65,53.74-55.37,80.48-83.18c8.26-8.59,17.39-15.55,29.31-18.04
	c19.71-4.12,36.71,1.08,50.48,15.68c14.3,15.16,28.18,30.71,42.22,46.11c20.81,22.83,41.57,45.7,62.39,68.52
	c34.53,37.85,35.09,95.12,0.32,132.74c-26.71,28.89-60.15,40.02-98.63,30.73c-37.68-9.09-63.15-33-73.88-70.36
	c-9.95-34.63-2.56-66.28,21.46-93.61c2.37-2.7,4.87-5.29,7.33-7.92C516.87,428.98,517.27,428.68,518.11,427.95"/>
<path class="st1" d="M610.15,324.49c20.22-23.92,56.15-24.99,78.05-2.09c15.17,15.86,29.63,32.4,44.39,48.64
	c16.52,18.17,33.02,36.36,49.52,54.54c0.74,0.82,1.45,1.67,2.39,2.74c-5.29,5.48-11.38,9.57-18.3,12.41
	c-22.57,9.26-46.41,3.93-63.48-14.57c-19.85-21.51-39.44-43.25-59.14-64.9C632.48,349.06,621.39,336.86,610.15,324.49"/>
<polygon class="st1" points="485.32,366.18 502,385.22 524.97,362.24 509.1,362.24 "/>
</svg>
