<svg id="Layer_1" data-name="Layer 1" xmlns="http://www.w3.org/2000/svg" viewBox="0 0 566.93 566.93"><defs><style>.cls-1{fill:#15263e;}.cls-2{fill:#f0821b;}</style></defs><path class="cls-1" d="M103,312.76v11.8H39.31V242.1h11.8v70.66Z"/><path class="cls-1" d="M188.44,242.74v11.8H116.08v-11.8Zm-60.56,70h60.56v11.8H116.08V260.44h11.8v14.34h52.63v11.81H127.88Z"/><polygon class="cls-1" points="236.46 288.98 228.71 303.12 194.92 242.08 210.51 242.08 236.46 288.98"/><polygon class="cls-2" points="285.82 242.08 248.16 310.12 240.37 324.2 240.36 324.19 232.57 310.12 240.37 296.04 270.22 242.08 285.82 242.08"/><polygon class="cls-2" points="294.77 263.52 302.53 277.66 276.58 324.56 260.98 324.56 294.77 263.52"/><polygon class="cls-1" points="351.88 324.56 336.29 324.56 306.43 270.61 298.64 256.53 306.43 242.45 306.43 242.44 314.23 256.53 351.88 324.56"/><path class="cls-1" d="M434.69,283.81a41,41,0,0,1-36.05,40.75H361V260.48h11.81v52.28h25.05a29.33,29.33,0,0,0,24.41-22.93,29.61,29.61,0,0,0,.05-11.81,29.32,29.32,0,0,0-27.41-23.44H361V242.73h33.1v0a41.06,41.06,0,0,1,40.59,41.06Z"/><path class="cls-1" d="M487.46,242.66a41,41,0,1,1-40.95,41A40.94,40.94,0,0,1,487.46,242.66Zm-29.15,41a29.15,29.15,0,1,0,29.15-29.15A29.19,29.19,0,0,0,458.31,283.61Z"/></svg>