<?xml version="1.0" encoding="utf-8"?>
<!-- Generator: Adobe Illustrator 25.0.0, SVG Export Plug-In . SVG Version: 6.00 Build 0)  -->
<svg version="1.1" id="Layer_1" xmlns="http://www.w3.org/2000/svg" xmlns:xlink="http://www.w3.org/1999/xlink" x="0px" y="0px"
	 viewBox="0 0 1080 962" style="enable-background:new 0 0 1080 962;" xml:space="preserve">
<style type="text/css">
	.st0{fill:#9C1C20;}
	.st1{fill:#9B1E21;}
</style>
<g>
	<path class="st0" d="M31.7,856.1c2.4,8,5.9,15.4,10.3,22.4c4.4,7,9.7,13.3,15.9,19.1c6.2,5.7,13,10.7,20.5,14.8
		c7.5,4.1,15.6,7.3,24.1,9.5c8.6,2.3,17.5,3.4,26.7,3.4c9.3,0,18.3-1.1,26.9-3.4c8.6-2.3,16.7-5.4,24.2-9.4
		c7.5-4.1,14.3-9,20.5-14.7c6.2-5.7,11.5-12.1,15.8-19c4.4-6.9,7.8-14.4,10.2-22.4c2.4-8,3.6-16.3,3.6-25c0-8.7-1.2-17.1-3.6-25.1
		c-2.4-8-5.7-15.6-10.1-22.5c-4.3-7-9.6-13.3-15.7-19c-6.1-5.7-12.9-10.6-20.4-14.6c-7.5-4-15.6-7.1-24.3-9.4
		c-8.7-2.2-17.7-3.3-27.2-3.3c-9.3,0-18.3,1.1-26.9,3.3c-8.7,2.2-16.7,5.4-24.2,9.4c-7.5,4.1-14.3,8.9-20.5,14.6
		c-6.2,5.7-11.4,12-15.8,19c-4.3,7-7.7,14.5-10.2,22.5c-2.4,8-3.6,16.4-3.6,25.1C28.1,839.9,29.3,848.2,31.7,856.1z M49.4,807.4
		c2-7.7,4.8-14.9,8.3-21.6c3.6-6.7,7.9-12.8,13-18.3c5.1-5.5,10.7-10.2,16.8-14.1c6.1-3.9,12.7-7,19.8-9.2c7-2.2,14.4-3.3,22-3.3
		c7.7,0,15.1,1,22.2,3.2c7.1,2.1,13.7,5.1,19.9,9c6.1,3.9,11.7,8.6,16.7,14.1c5,5.5,9.2,11.5,12.8,18.2c3.5,6.7,6.2,13.9,8.2,21.7
		s2.9,15.8,2.9,24.2c0,8.3-1,16.3-2.9,24c-1.9,7.7-4.7,14.9-8.3,21.5c-3.6,6.7-7.9,12.8-12.9,18.2c-5,5.5-10.6,10.2-16.7,14.1
		c-6.1,3.9-12.7,6.9-19.8,9.1c-7,2.1-14.4,3.2-22,3.2c-7.6,0-14.9-1.1-21.9-3.3c-7-2.2-13.6-5.2-19.7-9.2c-6.1-4-11.7-8.7-16.8-14.2
		c-5-5.5-9.4-11.6-13-18.2c-3.6-6.7-6.4-13.8-8.4-21.5c-2-7.6-3-15.6-3-23.8C46.5,823.1,47.4,815.1,49.4,807.4z"/>
	<path class="st0" d="M283.3,755.3c9.2,12,18.5,24.3,27.9,36.9c9.5,12.6,19.5,25.8,30.1,39.5c0.1,0.2,0.4,0.5,0.7,1
		c0.4,0.5,0.9,1,1.6,1.5c0.7,0.5,1.5,0.9,2.6,1.3c1,0.4,2.3,0.5,3.8,0.5c1.6,0,2.9-0.1,3.9-0.3c1-0.2,1.7-0.5,2.4-0.8
		s1.1-0.7,1.5-1.2c0.4-0.5,0.7-1,1-1.5c0.5-0.6,1.3-1.7,2.5-3.3s3.1-4,5.6-7.4c2.6-3.4,6.2-8.1,10.9-14.2
		c4.7-6.1,10.6-13.9,17.8-23.4c7.2-9.5,16-21.1,26.5-34.9v174.1c0,0.6,0.8,1.1,2.3,1.5c1.6,0.4,3.5,0.6,5.8,0.6
		c3.1,0,5.1-0.2,6.1-0.7s1.5-0.9,1.5-1.5V740.8c0-0.3-0.1-0.5-0.2-0.9c-0.1-0.3-0.5-0.6-1-0.9c-0.5-0.3-1.2-0.5-2.3-0.6
		c-1-0.1-2.4-0.2-4.2-0.2c-1.5,0-2.6,0-3.5,0.2c-0.9,0.1-1.6,0.2-2.1,0.4c-0.5,0.2-0.9,0.3-1.1,0.5s-0.4,0.4-0.5,0.6L358,824.7
		l-64.5-84.3c-0.2-0.2-0.4-0.4-0.7-0.7s-0.6-0.5-1.2-0.7c-0.5-0.2-1.3-0.4-2.2-0.5c-0.9-0.1-2.2-0.2-3.7-0.2c-1.6,0-2.8,0.1-3.8,0.2
		c-1,0.2-1.8,0.4-2.4,0.6c-0.6,0.2-1,0.5-1.2,0.8c-0.2,0.3-0.3,0.6-0.3,0.9v182.4c0,0.3-0.1,0.6-0.2,0.9c-0.2,0.3-0.2,0.5-0.2,0.8
		s0.2,0.5,0.7,0.6c0.4,0.1,1.3,0.2,2.5,0.2c1.7,0,2.8,0,3.3,0c0.5,0,0.8-0.1,0.7-0.3c-0.1-0.1-0.2-0.3-0.5-0.5
		c-0.3-0.2-0.5-0.4-0.5-0.7L283.3,755.3z"/>
	<path class="st0" d="M496.7,920.5c0,0.8,0.2,1.5,0.5,2c0.3,0.5,0.8,0.9,1.6,1.2c0.8,0.3,1.8,0.5,3.1,0.5c1.3,0.1,3,0.2,5,0.2h119.6
		c3,0,5.1-0.2,6.3-0.5c1.2-0.3,1.8-0.8,1.8-1.6c0-0.3-0.3-0.5-0.7-0.7c-0.5-0.2-1.1-0.4-1.9-0.5c-0.8-0.1-1.6-0.2-2.6-0.3
		c-1-0.1-1.9-0.1-2.8-0.1H512.7v-52.4H630c2.2,0,4.1-0.1,5.7-0.3s2.4-0.7,2.4-1.3c0-0.5-0.8-1-2.4-1.4c-1.6-0.4-3.5-0.6-5.7-0.6
		H512.7V743h113.8c2.2,0,4.1-0.1,5.7-0.3c1.6-0.2,2.4-0.7,2.4-1.3c0-0.5-0.8-1-2.4-1.5c-1.6-0.4-3.5-0.7-5.7-0.7H506.8
		c-0.9,0-2,0-3.2,0.1c-1.2,0.1-2.3,0.2-3.3,0.3c-1,0.1-1.9,0.4-2.6,0.7c-0.7,0.3-1,0.7-1,1.2v123.2h-13.4c-2.4,0-4.3,0.1-5.8,0.3
		c-1.5,0.2-2.2,0.6-2.2,1.3c0,0.6,0.7,1.1,2.2,1.5c1.5,0.4,3.4,0.5,5.8,0.5h13.4L496.7,920.5L496.7,920.5z"/>
	<path class="st0" d="M743.9,853.8c1.2,0.1,2.2,0.2,2.9,0.3c0.7,0,1.5,0,2.2,0h2.2h2.9c6.6,0,13-0.4,19.3-1.3
		c6.3-0.9,12.3-2.3,17.9-4.1c5.6-1.9,10.8-4.3,15.5-7.3c4.7-3,8.8-6.6,12.3-10.9c3.5-4.3,6.1-9.2,8-14.9s2.9-12,2.9-19.2
		c0-10.1-1.8-18.7-5.5-25.9c-3.6-7.2-8.7-13.1-15.1-17.7c-6.4-4.6-14-8-22.8-10.2c-8.7-2.2-18.2-3.3-28.3-3.3h-60.7
		c-0.9,0-1.9,0-3.1,0.1c-1.2,0.1-2.3,0.2-3.3,0.3s-1.9,0.4-2.7,0.7c-0.7,0.3-1.1,0.7-1.1,1.2v181.6c0,0.5,0.7,1,2,1.5
		c1.3,0.4,3.3,0.7,5.9,0.7c2.3,0,4.3-0.2,5.8-0.6c1.6-0.4,2.3-0.9,2.3-1.5V743.2h52.2c4,0,8,0.1,12,0.3s8.2,0.8,12.4,1.8
		c5.4,1.2,10.3,3.4,14.5,6.5s7.8,6.9,10.8,11.4c2.9,4.5,5.1,9.5,6.7,15.2c1.5,5.7,2.3,11.7,2.3,18c0,7.2-0.9,13.8-2.7,19.7
		s-4.3,11-7.7,15.4s-7.5,8-12.4,10.8c-4.9,2.8-10.3,4.8-16.4,5.9c-4.3,0.6-8.9,1-13.8,1.2c-4.8,0.2-9.3,0.3-13.5,0.3
		c-1.5,0-3.1,0-4.7,0c-1.6,0-3.4,0-5.4,0s-4.3,0-6.9,0c-2.6,0-5.6,0-9.1,0c-1.7,0-2.8,0-3.5,0.1c-0.7,0.1-1.1,0.2-1.3,0.3
		s-0.2,0.3-0.1,0.5c0.1,0.2,0.1,0.5,0,0.9c0-0.1,0.1,0,0.3,0c0.2,0.1,0.7,0.4,1.6,1c0.9,0.5,2.3,1.4,4.2,2.7c1.9,1.2,4.5,3,7.9,5.3
		c3.4,2.3,7.7,5.2,12.9,8.7c5.2,3.5,11.6,7.9,19.3,13c7.6,5.2,16.5,11.2,26.7,18.1s22,15,35.4,24.1c0.8,0,1.9,0,3.4,0
		c1.5,0,3.1,0.1,4.9,0.1c1.8,0,3.6,0.1,5.5,0.2c1.9,0.1,3.6,0.1,5.1,0.2s2.8,0,3.7,0s1.5,0,1.5-0.1L743.9,853.8z"/>
	<path class="st0" d="M1008.5,868.4c0.3,0.5,0.8,1.4,1.3,2.7c0.5,1.3,1.2,2.8,2.1,4.5c1.2,2.5,2.6,5.4,4.3,8.7s3.4,6.8,5.2,10.4
		s3.7,7.1,5.7,10.7c1.9,3.5,3.8,6.7,5.6,9.6c1.8,2.9,3.4,5.3,5,7.3c1.5,2,2.8,3.2,3.9,3.6c3.1,0,5.7-0.2,7.5-0.7
		c1.9-0.5,2.8-1,2.8-1.6c-16.2-32-30.9-60.9-44-86.8c-3.8-7.4-7.5-14.7-11.2-22c-3.7-7.3-7.3-14.3-10.8-21.1
		c-3.5-6.8-6.7-13.2-9.7-19.2c-3-6-5.7-11.3-8.1-16c-2.4-4.7-4.4-8.5-5.9-11.7c-1.6-3.1-2.6-5.2-3.2-6.3h0.2c-0.3-0.5-1-1-2.2-1.5
		c-1.2-0.4-3.2-0.7-6-0.7c-1.4,0-2.6,0.1-3.5,0.2c-0.9,0.1-1.6,0.3-2.2,0.5c-0.5,0.2-0.9,0.4-1.2,0.6c-0.2,0.2-0.4,0.4-0.5,0.6h0.2
		c-5.1,10-10.3,20.2-15.6,30.7c-5.3,10.4-10.7,21-16.1,31.5c-5.4,10.6-10.8,21.1-16.1,31.5c-5.3,10.4-10.5,20.7-15.6,30.7h-15.3
		c-2.4,0-4.4,0.1-5.8,0.3c-1.5,0.2-2.2,0.6-2.2,1.3c0,0.6,0.7,1.1,2.2,1.5c1.5,0.4,3.4,0.5,5.8,0.5h13.5l-5.4,10.7
		c-1.4,2.8-3,5.8-4.7,9s-3.4,6.6-5.2,10c-1.7,3.3-3.4,6.6-5,9.7c-1.6,3.1-3,5.9-4.3,8.3c-1.2,2.4-2.3,4.3-3,5.7
		c-0.8,1.4-1.2,2.1-1.2,2c0,0.3-0.1,0.5-0.3,0.7c-0.2,0.2-0.3,0.3-0.3,0.3c0,0.1,0.2,0.1,0.5,0.2c0.3,0,1.1,0,2.2,0
		c0.7,0,1.3-0.2,1.8-0.5c0.5-0.4,0.9-0.8,1.2-1.3c0.3-0.5,0.6-1,0.8-1.5c0.2-0.5,0.4-0.8,0.6-1.1l27.8-52.5L1008.5,868.4z
		 M946.6,745c4.8,9.7,9.8,19.5,14.8,29.7c5.1,10.1,10.1,20.3,15.2,30.5c5.1,10.2,10.2,20.3,15.2,30.3s9.9,19.8,14.7,29.3l-120.4-0.3
		L946.6,745z"/>
	<path class="st1" d="M416.6,291.6c29,31.8,57.5,63.2,84.8,93.2c-8.7,13.6-18.7,25.3-24.2,38.7c-20,48.7,6.9,104.1,57.4,120.2
		c50.6,16.2,103.7-13.6,117.1-65.6c8-31,0.5-57.9-20.9-81.2c-65.4-71.3-130.9-142.6-196.4-213.8c-5.9-6.4-11.7-12.7-20.3-22.1
		c-1.7,3.3-2.5,6.5-4.5,8.5c-38.3,38.8-76.3,77.8-115.2,116c-46.9,46.1-120.4,46.7-168.7,2.4c-2.6-2.4-5.6-4.2-11.1-8.3
		c12.4-11.2,23.3-20.2,33.1-30.2c58.8-60.4,117.4-121,175.9-181.8c18-18.8,38-34,64-39.4c43.1-9,80.2,2.4,110.3,34.3
		c31.2,33.1,61.6,67.1,92.3,100.8c45.5,49.9,90.8,99.9,136.3,149.7c75.5,82.7,76.7,207.9,0.7,290.1
		c-58.4,63.1-131.4,87.4-215.5,67.1c-82.3-19.9-138-72.1-161.4-153.7c-21.7-75.7-5.6-144.8,46.9-204.6c5.2-5.9,10.6-11.6,16-17.3
		C413.8,293.9,414.7,293.2,416.6,291.6"/>
	<path class="st1" d="M617.7,65.6c44.2-52.3,122.7-54.6,170.6-4.6c33.1,34.7,64.7,70.8,97,106.3c36.1,39.7,72.2,79.5,108.2,119.2
		c1.6,1.8,3.2,3.6,5.2,6c-11.6,12-24.9,20.9-40,27.1c-49.3,20.2-101.4,8.6-138.7-31.8c-43.4-47-86.2-94.5-129.2-141.8
		C666.5,119.2,642.2,92.6,617.7,65.6"/>
	<polygon class="st1" points="344.9,156.7 381.3,198.3 431.5,148 396.9,148 	"/>
</g>
</svg>
