<?xml version="1.0" encoding="utf-8"?>
<!-- Generator: Adobe Illustrator 25.0.0, SVG Export Plug-In . SVG Version: 6.00 Build 0)  -->
<svg version="1.1" id="Layer_1" xmlns="http://www.w3.org/2000/svg" xmlns:xlink="http://www.w3.org/1999/xlink" x="0px" y="0px"
	 viewBox="0 0 3731.7 962" style="enable-background:new 0 0 3731.7 962;" xml:space="preserve">
<style type="text/css">
	.st0{fill:#9C1C20;}
</style>
<path class="st0" d="M113.3,588.2c8.4,27.2,20.1,52.6,35.2,76.5c15.1,23.8,33.2,45.6,54.3,65.1c21.1,19.6,44.4,36.4,70,50.5
	c25.7,14.1,53.2,24.9,82.4,32.6c29.3,7.7,59.7,11.5,91.4,11.5c31.8,0,62.4-3.9,91.9-11.5c29.4-7.7,57-18.4,82.6-32.3
	c25.7-13.9,49-30.6,70.1-50.2c21.1-19.6,39.1-41.2,54.1-64.9c15-23.7,26.7-49.3,34.9-76.6c8.2-27.4,12.4-55.9,12.4-85.4
	c0-29.7-4-58.4-12.2-85.9c-8.1-27.5-19.6-53.2-34.5-77s-32.8-45.5-53.6-64.9c-20.8-19.5-44.1-36.1-69.7-49.8
	c-25.7-13.7-53.3-24.4-83-32c-29.6-7.5-60.6-11.4-93-11.4c-31.8,0-62.5,3.8-92.1,11.4s-57.1,18.3-82.8,32.1
	c-25.6,13.9-49,30.5-70,50c-21.1,19.5-39.1,41.1-53.9,65c-14.9,23.8-26.4,49.4-34.7,76.8c-8.2,27.3-12.4,55.9-12.4,85.7
	C100.7,532.8,104.9,561,113.3,588.2z M173.7,421.6c6.7-26.3,16.3-50.9,28.5-73.9c12.2-22.9,27-43.8,44.3-62.5
	c17.3-18.8,36.4-34.9,57.4-48.3c21-13.4,43.5-23.8,67.5-31.3c24-7.4,49.1-11.2,75.2-11.2c26.4,0,51.7,3.6,75.9,10.8
	c24.3,7.2,46.9,17.5,67.9,30.9s40,29.4,57.1,48.1c17.1,18.7,31.6,39.4,43.6,62.4c12,22.9,21.4,47.6,28,74s9.9,54,9.9,82.6
	c0,28.4-3.4,55.7-9.9,81.9c-6.6,26.2-16.1,50.8-28.4,73.6c-12.2,22.8-27,43.6-44.1,62.4c-17.2,18.8-36.2,34.9-57.2,48.3
	c-21,13.4-43.5,23.7-67.5,31.1c-24,7.3-49.1,11-75.3,11c-25.8,0-50.8-3.7-74.7-11.2c-24-7.5-46.4-17.9-67.4-31.4
	c-21-13.5-40.1-29.6-57.4-48.5c-17.3-18.7-32.1-39.6-44.5-62.4s-22-47.3-28.8-73.3c-6.9-26.1-10.3-53.2-10.3-81.5
	C163.6,475.3,167,448,173.7,421.6z"/>
<path class="st0" d="M972.9,243.4c31.4,41,63.2,83,95.5,126.1c32.3,43.1,66.5,88,102.8,135c0.4,0.7,1.3,1.8,2.5,3.4
	c1.3,1.6,3.1,3.3,5.3,5c2.3,1.7,5.2,3.2,8.7,4.5c3.6,1.3,7.8,1.9,12.9,1.9c5.5,0,9.9-0.3,13.2-1c3.3-0.7,6-1.6,8.1-2.8
	c2.1-1.1,3.7-2.5,5-4.1c1.3-1.6,2.5-3.3,3.6-5.2c1.6-2.1,4.4-5.8,8.4-11.1c4-5.4,10.5-13.8,19.3-25.2c8.8-11.5,21.2-27.7,37.1-48.6
	c15.9-21,36.2-47.6,60.8-79.9c24.6-32.3,54.8-72,90.5-119.2v595c0,2.1,2.6,3.8,7.9,5.2c5.3,1.3,11.9,2.1,19.9,2.1
	c10.5,0,17.5-0.7,21-2.2c3.4-1.5,5.2-3.1,5.2-5V193.9c0-0.9-0.2-1.9-0.7-2.9c-0.4-1-1.6-2-3.3-2.9c-1.7-0.9-4.3-1.6-7.7-2
	c-3.4-0.4-8.2-0.7-14.4-0.7c-5.1,0-9,0.1-12,0.5c-3,0.4-5.3,0.8-7,1.3c-1.7,0.6-3,1.2-3.8,1.9c-0.8,0.7-1.4,1.3-1.9,2l-221.6,289.6
	l-220.6-288.3c-0.7-0.7-1.4-1.5-2.2-2.4s-2.1-1.7-4-2.4c-1.9-0.7-4.3-1.3-7.5-1.7c-3.2-0.4-7.5-0.7-12.7-0.7
	c-5.3,0-9.6,0.3-13.1,0.8c-3.4,0.6-6.1,1.3-8.1,2.1c-1.9,0.8-3.3,1.7-4,2.8c-0.7,1-1,2-1,2.9v623.3c0,1.1-0.3,2.2-0.8,3.1
	c-0.6,0.9-0.8,1.9-0.8,2.8s0.7,1.6,2.2,2.1c1.5,0.4,4.3,0.7,8.4,0.7c5.8,0,9.5-0.1,11.4-0.1c1.9-0.1,2.6-0.4,2.4-0.9
	c-0.2-0.4-0.8-1-1.9-1.6c-1-0.6-1.6-1.4-1.6-2.5L972.9,243.4z"/>
<path class="st0" d="M1702.2,808.2c0,2.8,0.5,5,1.6,6.7c1,1.7,2.8,3.1,5.5,4c2.6,0.9,6.2,1.6,10.6,1.9c4.5,0.4,10.2,0.5,17,0.5
	h408.9c10.3,0,17.5-0.5,21.5-1.6s6-2.8,6-5.3c0-0.9-0.9-1.7-2.5-2.4c-1.7-0.7-3.9-1.3-6.6-1.7c-2.6-0.4-5.6-0.8-8.9-1
	c-3.4-0.2-6.5-0.4-9.5-0.4h-388.9v-179h400.9c7.5,0,14-0.4,19.4-1.2c5.4-0.8,8.1-2.2,8.1-4.3c0-1.8-2.7-3.4-8.1-4.8
	c-5.4-1.3-11.9-2.1-19.4-2.1h-400.9v-416h388.9c7.5,0,14-0.4,19.4-1.2s8.1-2.2,8.1-4.3c0-1.8-2.7-3.5-8.1-5
	c-5.4-1.5-11.9-2.2-19.4-2.2H1737c-3.2,0-6.8,0.1-10.8,0.4c-4,0.2-7.8,0.6-11.4,1c-3.6,0.4-6.5,1.3-9,2.4c-2.4,1.2-3.6,2.5-3.6,4.1
	v420.9h-45.7c-8.2,0-14.9,0.4-19.9,1c-5.1,0.7-7.5,2.2-7.5,4.5c0,2,2.5,3.7,7.5,5s11.6,1.9,19.9,1.9h45.7L1702.2,808.2L1702.2,808.2
	z"/>
<path class="st0" d="M2547.3,580c4.1,0.4,7.5,0.7,9.9,0.9c2.5,0.1,5,0.1,7.4,0.1h7.4h9.9c22.4,0,44.5-1.5,66.1-4.5
	c21.7-3,42.1-7.7,61.3-14.1c19.3-6.4,37-14.7,53.1-24.9c16.1-10.2,30.1-22.6,41.9-37.3c11.8-14.6,21-31.6,27.5-50.9
	c6.5-19.3,9.8-41.1,9.8-65.6c0-34.4-6.2-63.8-18.7-88.4c-12.5-24.6-29.7-44.8-51.7-60.6c-22-15.8-47.9-27.4-77.8-34.9
	c-29.9-7.5-62.1-11.2-96.7-11.2h-207.5c-3,0-6.5,0.1-10.5,0.4c-4,0.2-7.8,0.6-11.4,1c-3.6,0.4-6.6,1.3-9.1,2.4
	c-2.5,1.2-3.7,2.5-3.7,4.1v620.5c0,1.8,2.2,3.5,6.7,5c4.5,1.5,11.2,2.2,20.1,2.2c8,0,14.6-0.7,19.9-2.1c5.3-1.3,7.9-3.1,7.9-5.2
	V202.2h178.3c13.5,0,27.2,0.4,41.1,1.2s28,2.8,42.4,6c18.5,4.1,35.1,11.5,49.7,22.2c14.6,10.7,26.8,23.6,36.7,38.8
	c9.9,15.2,17.5,32.6,22.9,51.9c5.2,19.3,7.9,40,7.9,61.7c0,24.7-3.1,47.2-9.1,67.4c-6,20.2-14.9,37.7-26.4,52.7
	c-11.6,15-25.7,27.3-42.3,36.9c-16.6,9.6-35.3,16.4-56.2,20.3c-14.9,2.1-30.5,3.5-47,4.3c-16.5,0.8-31.8,1.2-46,1.2
	c-5.2,0-10.6-0.1-16.1-0.1c-5.5-0.1-11.7-0.1-18.6-0.1c-6.9,0-14.7-0.1-23.5-0.1c-8.8-0.1-19.2-0.1-31.1-0.1c-5.8,0-9.7,0.1-12,0.3
	c-2.3,0.2-3.7,0.6-4.3,1c-0.6,0.4-0.7,1.1-0.4,1.9c0.4,0.8,0.4,1.8,0.1,2.9c0-0.2,0.3-0.1,0.9,0.1c0.6,0.4,2.4,1.4,5.5,3.3
	c3.1,1.9,7.8,4.9,14.3,9.1c6.4,4.3,15.4,10.3,27,18.2c11.6,7.9,26.3,17.8,44.1,29.9c17.8,12,39.8,26.9,65.8,44.5
	c26,17.6,56.5,38.3,91.4,62s75.3,51.2,121.1,82.3c2.8,0,6.6,0.1,11.6,0.1c5,0.1,10.6,0.2,16.7,0.4c6,0.1,12.3,0.3,18.7,0.5
	c6.4,0.2,12.2,0.4,17.3,0.5c5.2,0.1,9.4,0.1,12.7,0.1s5-0.1,5-0.4L2547.3,580z"/>
<path class="st0" d="M3451.5,629.9c1.1,1.8,2.6,4.9,4.5,9.3s4.3,9.5,7.2,15.5c4.1,8.4,9,18.4,14.6,29.9
	c5.6,11.4,11.6,23.3,17.8,35.5s12.8,24.4,19.4,36.4c6.6,12,13,22.9,19,32.8c6,9.9,11.7,18.1,17,24.9c5.2,6.7,9.7,10.8,13.4,12.2
	c10.8,0,19.3-0.8,25.8-2.5c6.4-1.7,9.6-3.5,9.6-5.3c-55.4-109.3-105.6-208.1-150.5-296.5c-12.8-25.2-25.6-50.3-38.3-75.3
	c-12.7-24.9-24.9-49-36.7-72.1c-11.8-23.2-22.9-45-33.2-65.5c-10.3-20.5-19.6-38.7-27.6-54.7c-8.1-15.9-14.9-29.2-20.3-39.9
	c-5.4-10.7-9-17.8-10.8-21.5h0.7c-0.9-1.8-3.4-3.5-7.5-5c-4.1-1.5-11-2.2-20.6-2.2c-4.9,0-8.7,0.2-11.9,0.7c-3.1,0.4-5.5,1-7.4,1.7
	c-1.9,0.7-3.1,1.3-4,2.1c-0.8,0.7-1.3,1.3-1.6,2h0.7c-17.4,34.1-35.2,69.1-53.4,104.8c-18.2,35.7-36.6,71.6-55.2,107.7
	c-18.5,36.1-36.9,72-55.1,107.7c-18.2,35.7-36,70.6-53.4,104.8h-52.2c-8.2,0-14.9,0.4-19.9,1c-5,0.7-7.5,2.2-7.5,4.5
	c0,2,2.5,3.7,7.5,5c5,1.3,11.7,1.9,19.9,1.9h46l-18.5,36.4c-4.8,9.4-10.2,19.7-16,30.9c-5.8,11.2-11.7,22.6-17.7,34.1
	c-6,11.4-11.6,22.5-17.2,33.2s-10.4,20.1-14.6,28.4c-4.3,8.2-7.7,14.8-10.3,19.6c-2.6,4.8-4,7.1-4,6.9c0,0.9-0.3,1.6-1,2.2
	c-0.7,0.6-1,1-1,1.2c0,0.2,0.6,0.4,1.7,0.5c1.1,0.1,3.7,0.1,7.5,0.1c2.5,0,4.6-0.6,6.2-1.9c1.6-1.3,3-2.8,4.1-4.5
	c1.1-1.7,2.1-3.4,2.8-5c0.7-1.6,1.3-2.8,2.1-3.8l94.8-179.4L3451.5,629.9z M3239.8,208.4c16.5,33,33.4,66.8,50.7,101.3
	s34.7,69.3,52.1,104.1c17.4,34.8,34.7,69.4,51.9,103.6c17.2,34.2,33.9,67.7,50.2,100.1l-411.6-1L3239.8,208.4z"/>
</svg>
