<?xml version="1.0" encoding="utf-8"?>
<!-- Generator: Adobe Illustrator 26.0.3, SVG Export Plug-In . SVG Version: 6.00 Build 0)  -->
<svg version="1.1" id="Layer_1" xmlns="http://www.w3.org/2000/svg" xmlns:xlink="http://www.w3.org/1999/xlink" x="0px" y="0px"
	 viewBox="0 0 1080 1080" style="enable-background:new 0 0 1080 1080;" xml:space="preserve">
<style type="text/css">
	.st0{fill:#9C1C20;}
	.st1{fill:#9B1E21;}
	.st2{fill:#FFFFFF;}
</style>
<g>
	<path class="st0" d="M342,686.29c1.12,3.64,2.69,7.05,4.72,10.24c2.02,3.19,4.45,6.1,7.27,8.72c2.82,2.62,5.95,4.88,9.38,6.76
		c3.44,1.89,7.12,3.34,11.04,4.37c3.93,1.03,8,1.54,12.24,1.54c4.26,0,8.36-0.52,12.31-1.54c3.94-1.03,7.63-2.47,11.06-4.32
		c3.44-1.86,6.56-4.1,9.39-6.72c2.82-2.62,5.24-5.52,7.25-8.69c2.01-3.17,3.57-6.6,4.67-10.26c1.1-3.67,1.66-7.48,1.66-11.43
		c0-3.98-0.54-7.82-1.63-11.5c-1.09-3.68-2.63-7.12-4.62-10.31c-1.99-3.19-4.39-6.09-7.18-8.69c-2.79-2.61-5.9-4.83-9.34-6.67
		c-3.44-1.84-7.14-3.27-11.11-4.28c-3.97-1.01-8.12-1.52-12.45-1.52c-4.26,0-8.37,0.51-12.33,1.52c-3.96,1.01-7.65,2.45-11.09,4.3
		c-3.43,1.86-6.56,4.09-9.38,6.69c-2.82,2.61-5.23,5.51-7.22,8.7c-1.99,3.19-3.54,6.62-4.65,10.28c-1.1,3.66-1.66,7.49-1.66,11.48
		C340.32,678.87,340.88,682.65,342,686.29z M350.09,663.99c0.9-3.52,2.18-6.82,3.82-9.89c1.64-3.06,3.62-5.86,5.93-8.37
		c2.32-2.52,4.88-4.67,7.68-6.47c2.81-1.79,5.82-3.19,9.04-4.19c3.22-0.99,6.58-1.5,10.07-1.5c3.53,0,6.92,0.48,10.17,1.45
		c3.25,0.97,6.28,2.34,9.09,4.14c2.81,1.8,5.35,3.94,7.64,6.44s4.23,5.28,5.84,8.35c1.61,3.06,2.86,6.37,3.75,9.91
		c0.89,3.54,1.33,7.23,1.33,11.06c0,3.8-0.45,7.46-1.33,10.97c-0.89,3.51-2.16,6.8-3.8,9.85c-1.64,3.05-3.61,5.84-5.91,8.35
		c-2.3,2.52-4.85,4.67-7.66,6.47c-2.81,1.79-5.82,3.18-9.04,4.16c-3.22,0.98-6.58,1.47-10.08,1.47c-3.46,0-6.8-0.5-10-1.5
		c-3.21-1-6.21-2.4-9.02-4.21c-2.81-1.81-5.37-3.97-7.68-6.49c-2.31-2.51-4.3-5.3-5.96-8.35c-1.66-3.05-2.94-6.33-3.86-9.82
		c-0.92-3.5-1.38-7.13-1.38-10.91C348.74,671.17,349.19,667.52,350.09,663.99z"/>
	<path class="st0" d="M457.11,640.12c4.2,5.49,8.46,11.12,12.79,16.88c4.33,5.77,8.91,11.79,13.76,18.08
		c0.06,0.09,0.18,0.24,0.34,0.46c0.17,0.22,0.41,0.44,0.71,0.67c0.31,0.23,0.7,0.43,1.17,0.6c0.48,0.17,1.05,0.25,1.73,0.25
		c0.74,0,1.33-0.04,1.77-0.14c0.44-0.09,0.8-0.22,1.08-0.37c0.28-0.15,0.5-0.34,0.67-0.55c0.17-0.22,0.33-0.44,0.48-0.69
		c0.21-0.28,0.59-0.77,1.13-1.49c0.54-0.72,1.4-1.85,2.58-3.38c1.18-1.54,2.84-3.71,4.97-6.51c2.13-2.81,4.85-6.37,8.14-10.7
		c3.3-4.33,7.34-9.64,12.12-15.96v79.68c0,0.28,0.35,0.51,1.06,0.69c0.71,0.18,1.59,0.28,2.67,0.28c1.41,0,2.35-0.1,2.81-0.3
		c0.46-0.2,0.69-0.42,0.69-0.67v-83.46c0-0.12-0.03-0.25-0.09-0.39c-0.06-0.14-0.21-0.27-0.44-0.39c-0.23-0.12-0.57-0.22-1.03-0.27
		c-0.46-0.06-1.1-0.09-1.93-0.09c-0.68,0-1.21,0.02-1.61,0.07c-0.4,0.05-0.71,0.11-0.94,0.18c-0.23,0.08-0.4,0.16-0.51,0.25
		s-0.19,0.18-0.25,0.27l-29.67,38.78l-29.54-38.6c-0.09-0.09-0.19-0.2-0.3-0.32s-0.28-0.23-0.53-0.32
		c-0.25-0.09-0.58-0.17-1.01-0.23c-0.43-0.06-1-0.09-1.7-0.09c-0.71,0-1.29,0.04-1.75,0.11c-0.46,0.08-0.82,0.17-1.08,0.28
		c-0.26,0.11-0.44,0.23-0.53,0.37c-0.09,0.14-0.14,0.27-0.14,0.39v83.46c0,0.15-0.04,0.29-0.11,0.41c-0.08,0.12-0.11,0.25-0.11,0.37
		c0,0.12,0.1,0.21,0.3,0.28c0.2,0.06,0.58,0.09,1.13,0.09c0.77,0,1.27-0.01,1.52-0.02c0.25-0.02,0.35-0.05,0.32-0.12
		c-0.03-0.06-0.11-0.13-0.25-0.21c-0.14-0.08-0.21-0.19-0.21-0.34L457.11,640.12z"/>
	<path class="st0" d="M554.77,715.75c0,0.37,0.07,0.67,0.21,0.9c0.14,0.23,0.38,0.41,0.74,0.53c0.35,0.12,0.83,0.21,1.42,0.25
		c0.6,0.05,1.36,0.07,2.28,0.07h54.75c1.38,0,2.34-0.07,2.88-0.21c0.54-0.14,0.81-0.38,0.81-0.71c0-0.12-0.12-0.23-0.34-0.32
		c-0.23-0.09-0.52-0.17-0.88-0.23c-0.35-0.06-0.75-0.11-1.19-0.14c-0.45-0.03-0.87-0.05-1.27-0.05h-52.08v-23.97h53.69
		c1.01,0,1.88-0.05,2.6-0.16c0.72-0.11,1.08-0.3,1.08-0.58c0-0.24-0.36-0.46-1.08-0.64c-0.72-0.18-1.59-0.28-2.6-0.28h-53.69v-55.71
		h52.08c1.01,0,1.88-0.05,2.6-0.16c0.72-0.11,1.08-0.3,1.08-0.58c0-0.24-0.36-0.47-1.08-0.67c-0.72-0.2-1.59-0.3-2.6-0.3h-54.75
		c-0.43,0-0.91,0.02-1.45,0.05c-0.54,0.03-1.05,0.08-1.52,0.14c-0.48,0.06-0.87,0.17-1.2,0.32c-0.32,0.16-0.48,0.34-0.48,0.55v56.36
		h-6.12c-1.1,0-1.99,0.05-2.67,0.14c-0.68,0.09-1.01,0.29-1.01,0.6c0,0.27,0.34,0.5,1.01,0.67c0.67,0.17,1.56,0.25,2.67,0.25h6.12
		V715.75z"/>
	<path class="st0" d="M667.93,685.2c0.55,0.06,1,0.1,1.33,0.12c0.34,0.02,0.67,0.02,0.99,0.02h0.99h1.33c3,0,5.96-0.2,8.85-0.6
		c2.9-0.4,5.64-1.03,8.21-1.89c2.58-0.86,4.95-1.97,7.11-3.34c2.16-1.36,4.03-3.03,5.61-4.99c1.58-1.96,2.81-4.23,3.68-6.81
		c0.87-2.58,1.31-5.51,1.31-8.79c0-4.6-0.83-8.55-2.51-11.84c-1.67-3.3-3.98-6-6.92-8.12c-2.95-2.12-6.42-3.67-10.42-4.67
		c-4-1-8.32-1.5-12.95-1.5h-27.79c-0.4,0-0.87,0.02-1.4,0.05c-0.54,0.03-1.04,0.08-1.52,0.14s-0.88,0.17-1.22,0.32
		c-0.34,0.16-0.5,0.34-0.5,0.55v83.09c0,0.24,0.3,0.47,0.9,0.67c0.6,0.2,1.5,0.3,2.69,0.3c1.07,0,1.96-0.09,2.67-0.28
		c0.71-0.18,1.06-0.41,1.06-0.69V634.6h23.88c1.81,0,3.64,0.05,5.5,0.16c1.86,0.11,3.75,0.38,5.68,0.81
		c2.48,0.55,4.7,1.54,6.65,2.97c1.95,1.43,3.59,3.16,4.92,5.2c1.33,2.04,2.35,4.36,3.06,6.95c0.7,2.59,1.06,5.35,1.06,8.26
		c0,3.31-0.41,6.32-1.22,9.02c-0.81,2.7-1.99,5.05-3.54,7.06c-1.55,2.01-3.44,3.66-5.66,4.94c-2.22,1.29-4.73,2.19-7.52,2.72
		c-1.99,0.28-4.09,0.47-6.3,0.57c-2.21,0.11-4.26,0.16-6.16,0.16c-0.7,0-1.42-0.01-2.16-0.02c-0.74-0.02-1.57-0.02-2.49-0.02
		c-0.92,0-1.97-0.01-3.15-0.02c-1.18-0.01-2.57-0.02-4.16-0.02c-0.77,0-1.3,0.01-1.61,0.04c-0.31,0.03-0.5,0.08-0.58,0.14
		c-0.08,0.06-0.09,0.15-0.05,0.25c0.05,0.11,0.05,0.24,0.02,0.39c0-0.03,0.04-0.02,0.12,0.02c0.08,0.05,0.32,0.19,0.74,0.44
		c0.41,0.25,1.05,0.65,1.91,1.22c0.86,0.57,2.06,1.38,3.61,2.44c1.55,1.06,3.52,2.39,5.91,4c2.39,1.61,5.33,3.6,8.81,5.96
		c3.48,2.36,7.56,5.13,12.24,8.3c4.68,3.17,10.08,6.85,16.22,11.02c0.37,0,0.89,0.01,1.56,0.02c0.67,0.02,1.42,0.03,2.23,0.05
		c0.81,0.02,1.65,0.04,2.51,0.07c0.86,0.03,1.63,0.05,2.32,0.07c0.69,0.02,1.26,0.02,1.7,0.02c0.44,0,0.67-0.02,0.67-0.05
		L667.93,685.2z"/>
	<path class="st0" d="M789.01,691.88c0.15,0.24,0.35,0.66,0.6,1.24c0.25,0.58,0.57,1.27,0.97,2.07c0.55,1.13,1.2,2.47,1.95,4
		c0.75,1.53,1.55,3.12,2.39,4.76c0.84,1.64,1.71,3.27,2.6,4.88c0.89,1.61,1.74,3.07,2.55,4.39c0.81,1.32,1.57,2.43,2.28,3.33
		c0.7,0.9,1.3,1.45,1.79,1.63c1.44,0,2.59-0.11,3.45-0.34c0.86-0.23,1.29-0.47,1.29-0.71c-7.42-14.63-14.14-27.87-20.15-39.7
		c-1.72-3.37-3.43-6.73-5.13-10.08c-1.7-3.34-3.34-6.56-4.92-9.66c-1.58-3.1-3.06-6.02-4.44-8.77c-1.38-2.74-2.62-5.18-3.7-7.32
		c-1.09-2.13-2-3.91-2.72-5.34c-0.72-1.43-1.2-2.38-1.45-2.88h0.09c-0.12-0.24-0.46-0.47-1.01-0.67c-0.55-0.2-1.47-0.3-2.76-0.3
		c-0.65,0-1.17,0.03-1.59,0.09s-0.74,0.14-0.99,0.23c-0.25,0.09-0.42,0.18-0.53,0.28c-0.11,0.09-0.18,0.18-0.21,0.27h0.09
		c-2.33,4.57-4.72,9.25-7.15,14.03c-2.44,4.78-4.9,9.59-7.39,14.42c-2.48,4.83-4.94,9.64-7.38,14.42
		c-2.44,4.78-4.82,9.46-7.15,14.03h-6.99c-1.1,0-2,0.05-2.67,0.14c-0.67,0.09-1.01,0.29-1.01,0.6c0,0.27,0.34,0.5,1.01,0.67
		c0.67,0.17,1.57,0.25,2.67,0.25h6.16l-2.48,4.88c-0.64,1.26-1.36,2.64-2.14,4.14c-0.78,1.5-1.57,3.02-2.37,4.56
		c-0.8,1.53-1.56,3.01-2.3,4.44c-0.74,1.43-1.39,2.69-1.96,3.8c-0.57,1.1-1.03,1.98-1.38,2.62c-0.35,0.64-0.53,0.95-0.53,0.92
		c0,0.12-0.04,0.22-0.14,0.3c-0.09,0.08-0.14,0.13-0.14,0.16c0,0.03,0.08,0.05,0.23,0.07c0.15,0.02,0.49,0.02,1.01,0.02
		c0.34,0,0.61-0.08,0.83-0.25c0.21-0.17,0.4-0.37,0.55-0.6c0.15-0.23,0.28-0.45,0.37-0.67c0.09-0.21,0.18-0.38,0.28-0.51l12.7-24.02
		L789.01,691.88z M760.67,635.43c2.21,4.42,4.47,8.94,6.79,13.57c2.32,4.63,4.64,9.28,6.97,13.94c2.33,4.66,4.65,9.29,6.95,13.87
		c2.3,4.58,4.54,9.06,6.72,13.41l-55.12-0.14L760.67,635.43z"/>
	<path class="st1" d="M518.11,427.95c13.26,14.57,26.33,28.93,38.83,42.67c-3.98,6.24-8.55,11.56-11.09,17.72
		c-9.17,22.3,3.17,47.62,26.25,55.02c23.14,7.42,47.44-6.21,53.57-30c3.66-14.18,0.22-26.49-9.57-37.16
		c-29.94-32.63-59.91-65.24-89.86-97.86c-2.68-2.91-5.34-5.83-9.28-10.13c-0.77,1.51-1.14,2.98-2.05,3.91
		c-17.52,17.74-34.93,35.6-52.72,53.07c-21.45,21.08-55.1,21.38-77.19,1.09c-1.18-1.08-2.57-1.93-5.07-3.78
		c5.66-5.14,10.66-9.23,15.13-13.83c26.9-27.65,53.74-55.37,80.48-83.18c8.26-8.59,17.39-15.55,29.31-18.04
		c19.71-4.12,36.71,1.08,50.48,15.68c14.3,15.16,28.18,30.71,42.22,46.11c20.81,22.83,41.57,45.7,62.39,68.52
		c34.53,37.85,35.09,95.12,0.32,132.74c-26.71,28.89-60.15,40.02-98.63,30.73c-37.68-9.09-63.15-33-73.88-70.36
		c-9.95-34.63-2.56-66.28,21.46-93.61c2.37-2.7,4.87-5.29,7.33-7.92C516.87,428.98,517.27,428.68,518.11,427.95"/>
	<path class="st1" d="M610.15,324.49c20.22-23.92,56.15-24.99,78.05-2.09c15.17,15.86,29.63,32.4,44.39,48.64
		c16.52,18.17,33.02,36.36,49.52,54.54c0.74,0.82,1.45,1.67,2.39,2.74c-5.29,5.48-11.38,9.57-18.3,12.41
		c-22.57,9.26-46.41,3.93-63.48-14.57c-19.85-21.51-39.44-43.25-59.14-64.9C632.48,349.06,621.39,336.86,610.15,324.49"/>
	<polygon class="st1" points="485.32,366.18 502,385.22 524.97,362.24 509.1,362.24 	"/>
</g>
</svg>
